<?xml version="1.0" encoding="utf-8"?>
<!-- Generator: Adobe Illustrator 17.1.0, SVG Export Plug-In . SVG Version: 6.00 Build 0)  -->
<!DOCTYPE svg PUBLIC "-//W3C//DTD SVG 1.1//EN" "http://www.w3.org/Graphics/SVG/1.1/DTD/svg11.dtd">
<svg version="1.1" id="レイヤー_1" xmlns="http://www.w3.org/2000/svg" xmlns:xlink="http://www.w3.org/1999/xlink" x="0px"
	 y="0px" viewBox="0 0 600 600" enable-background="new 0 0 600 600" xml:space="preserve">
<g>
	<path fill-rule="evenodd" clip-rule="evenodd" d="M237.5,184c19.8-12.1,23.8,18.6,7,18C237.4,201.7,230.7,192.3,237.5,184z"/>
	<path fill-rule="evenodd" clip-rule="evenodd" fill="#FFFFFF" d="M73.5,233C69.1,236.7,69.7,230.2,73.5,233L73.5,233z"/>
	<path fill-rule="evenodd" clip-rule="evenodd" d="M350.5,257c-3.4,5.6-8.1,9.9-12,15c12,0.4,17.2,37.2,5,41c-3.7,1.2-11.3-0.1-12-6
		c0.7-4.6,7.2-3.5,10-6c1.2-14.5-4.5-22.1-13-27c-0.7-8,5-9.6,8-14c-6.3-6-17.3-7.4-20-17C327,235.6,349.3,244.1,350.5,257z"/>
	<path fill-rule="evenodd" clip-rule="evenodd" d="M218.5,252c3.2,9.3-8.3,15.6-14,22c9.8,6.8,18.9,21.9,12,35
		c-5.3,10-26.6,15.9-28-2c6.1-5.7,13.3,3.4,20,0c0.3-6.5,0-13.4-3-20c-1.8-4-6.3-6.6-6-13c0.3-6,5.6-10.9,11-15
		c-2.1-5.9-10.1-5.9-12-12C205.1,242.3,214.3,248.1,218.5,252z"/>
	<path fill-rule="evenodd" clip-rule="evenodd" d="M226.5,280c1,0,2,0,3,0c5,5.1,12.9,22.6,5,28C225,306.1,225.8,288.8,226.5,280z"
		/>
	<path fill-rule="evenodd" clip-rule="evenodd" d="M359.5,280c8,6.7,18.8,19.9,14,33c-10.8-2.6-15.8-14.9-17-29
		C357.9,283,358.5,281.3,359.5,280z"/>
	<path fill-rule="evenodd" clip-rule="evenodd" d="M396.5,302c2.9,2.6,6.2-0.5,10,0c4.7,6.4-0.8,12.7-5,16
		c-11.1-4.2-15.1-15.6-14-32c2.9-2.1,3.8-3.2,8-2C398.6,290.1,396.5,293.9,396.5,302z"/>
	<path fill-rule="evenodd" clip-rule="evenodd" d="M177.5,284c0.7,9-3.3,19.4-9,25c-2.4,0.4-2.2-1.8-5-1
		C163.3,298.6,168.1,287,177.5,284z"/>
	<path fill-rule="evenodd" clip-rule="evenodd" d="M323.5,289c-3.3,9-3,21.7-9,28c-14.5-1.1-3.1-24.8,1-31
		C320.2,285,321.2,287.6,323.5,289z"/>
	<path fill-rule="evenodd" clip-rule="evenodd" d="M422.5,287c11.5,1.5,24.5,15.1,17,26C430.4,312.2,419.8,299.6,422.5,287z"/>
	<path fill-rule="evenodd" clip-rule="evenodd" d="M295.5,314c-17.6,1.6-20.1-11.9-24-24c0.8-0.9,2.7-0.6,3-2
		C283.6,294.6,294.9,298.9,295.5,314z"/>
	<path fill-rule="evenodd" clip-rule="evenodd" d="M249.5,290c7.6,0.4,5.7,10.3,6,18c1.4,3.3,4.6,4.7,7,7
		C251.6,333.6,242.3,301.6,249.5,290z"/>
	<path fill-rule="evenodd" clip-rule="evenodd" d="M377.5,329c-2.9,9.1-21.3,5.1-37,6c-7.2,0.4-14.4,1.7-16-5
		C335.6,323.5,365.5,322.3,377.5,329z"/>
	<path fill-rule="evenodd" clip-rule="evenodd" d="M253.5,355c1.2,7.8,1.9,20.3,0,28c6.4,3.1,34.4-0.8,34,11c-0.3,9.8-24.8,5.5-37,6
		c-15.1,0.7-40.7,6.5-41-5c-0.3-12,22.8-7.3,33-10c2.2-8.8,0.9-21.1,4-29c-10.6-2.4-22.9,3.1-30-5c-1.9-6.6,8.8-10.8,14-12
		c16.1-3.6,54.6-4.8,53,8C282.4,355.8,264.5,353.7,253.5,355z"/>
	<path fill-rule="evenodd" clip-rule="evenodd" d="M383.5,341c4.2,22.6-18.8,13.1-33,16c0,2,0,4,0,6c7.6,3.7,23.5-4.9,24,7
		c-6.1,4.9-16.5,0-24,4c7.5,2.8,18.9,1.8,25,6c1,9.3,0.4,24.8-5,31c-8.3,0.7-20.3,3.3-21-6c0.8-4.9,9.6-1.7,11-6
		c-0.7-5.4,1.1-8.2,2-12c-4.1-1.8-12.1-4.2-16-3c-6,4.6-8.6,17-20,13c1.1-11.9,11.8-14.2,16-23c-3.3-2.4-11.4,0.1-12-5
		c2.2-6,8.9-1.6,13-5c0-2.3,0-4.7,0-7c-3.3-1.8-9.2,1.1-15,0c-8.9,10.1-3.8,34.2-21,36c-3.9-8.2,2.7-15.2,6-22c4.4-9,8.7-17.4,8-32
		C341.5,342.2,369.3,332.2,383.5,341z M353.5,344c-8.6,0-19.4-0.7-23,1c-2.6-0.3-3.3,1.4-3,4c4.4,3.5,15.1,2,24,2
		c8.3,0,20.4,2.6,21-5C368.7,342.5,360.6,344,353.5,344z"/>
	<path fill-rule="evenodd" clip-rule="evenodd" fill="#FFFFFF" d="M372.5,346c-0.6,7.6-12.7,5-21,5c-8.9,0-19.6,1.5-24-2
		c-0.3-2.6,0.4-4.3,3-4c3.6-1.7,14.4-1,23-1C360.6,344,368.7,342.5,372.5,346z"/>
	<path fill-rule="evenodd" clip-rule="evenodd" d="M532.8,286.5c-0.6-6.8-2.6-18.3-4.3-25c-1.7-6.9-7.2-23.1-11-30.8
		c-10.7-21.9-22.4-41.2-37-56.3c-4.7-4.9-11.8-7.5-15-13c3.3-6.1,11.5-7.2,13-15c-2.1-2.9-4.5-5.5-8-7c-10.3,3-12.1,14.6-22,18
		c-7.5-5.1-13.7-11.6-22-16c2.5-11.8,6.3-22.3,8-35c-4-1.6-6.8-2.4-11-1c-4.2,8.4-2.9,22.4-8,30c-14.3-3-27.7-7-43-9
		c-3.7-8.7-1.6-27.2-15-23c-1.9,7,4.5,12.5,3,19c-32.4-0.2-58.7-3.1-82,2c-13.1,2.8-23.8,4.8-35,8c-17.3,4.9-36.3,12.6-48,21
		c-7.2,5.2-13.3,9.2-20,14c-3.6,2.6-8.2,5.8-13,9c-5.5,3.7-10.5,8.5-14,9c-4.5,0.6-10.9-1-15.6-1.3c-5.8-0.3-11.6-0.4-17.4,0.3
		c-6.7,0.7-13.4,0.1-19,1c-16.2,2.6-27.6,12.2-38,22c-4.5,9.5-10.9,16.4-13,29c-1.8,11,1,21.5,2,32c7.5,13.8,15.9,26.9,31,33
		c5.5,2.2,11.9,0.5,16,6c-0.9,29.4-1.9,57.8,3,82c3.7,18.4,14.8,37.8,24,50c6.4,8.6,10.4,12.2,18,18c3.4,2.6,6.7,5,10,8
		c12.2,11.1,23,18.3,37.7,26.9c5.9,3.4,13.1,7.5,15,8.4c2.6,1.5,15.4,4.9,19,6.1c20,5.3,34.4,7.9,55.3,9.6
		c11.6,0.9,49.1-0.1,54.6-0.5c4.4-0.3,26-2.6,30.8-3.4c8.3-1.4,13.8-3.4,22.5-5.9c4.7-1.4,27.4-12,29.5-13.1
		c4.9-2.4,18.2-11.9,28.6-18.1c6.4-3.8,13.4-9.8,20-15c14.8-11.7,25.9-22.5,36-34c5.5-6.3,12.3-12.5,16-19c6.3-11.1,15.4-28.8,17-35
		C538.3,346.3,534.9,311.7,532.8,286.5z M79.5,202.5c16.3-11.9,48-5.1,71-5c-13.6,16.4-25,35-35,55c-1.2-0.2-1.8,0.2-2,1
		c-19.5-7.1-36.3-17-51-29C68,215.7,72.1,207.9,79.5,202.5z M87.5,291.5c-17.2-8.9-37.3-28.5-29-57h2c10.5,1.5,17.9,8.4,26,13
		c8.1,4.5,16.7,8,26,12c-3.9,11.4-7.1,23.6-9,37C98.5,298.2,92.6,294.1,87.5,291.5z M457.9,448.4c-3.8,2.8-20.6,16.5-27.6,20.3
		c-2.3,1.7-36.5,21.1-41.9,23.3c-9.4,3.3-24.7,8.3-37.8,10.5c-12.1,2.1-27.5,0.6-41,2c-19.9,2-43-2.9-61-5
		c-32.8-3.7-63.6-22.4-86-39c-3.7-2.7-8.1-3.7-11-6c-5.1-4-13.4-14.8-18-21c-17.5-23.5-28.8-53.6-31-89c-0.9-14.3,0.7-31.6,3-44
		c2.5-13.3,4.1-28.8,9-42c0.1-0.4,1.7,0,2-1c4.1-15.3,14.3-28.3,23-41c8.9-12.9,19.4-26.6,30-35c7.3-5.8,17.2-10.6,26-17
		c2.6-1.9,3.5-3.6,6-5c21.7-12.2,56.5-25.3,86-27c25.7-1.5,51.9-3,79,3c5.3,9,4.5,24.2,13,30c1.9-8.6-4.6-17.4-4-28
		c15,1,27.3,4.7,39,9c0.1,7.8-2.4,12.1,0,20c1.6,0.1,3.8-0.5,4,1c3.9-3.1,3.3-10.7,5-16c10.4,1,15.5,7.1,23,11
		c-0.4,4.6-4.3,5.7-5,10c1.6,1.4,3.2,2.8,5,4c4.2-0.8,4.6-5.4,9-6c20.6,10,31.3,27.3,44.3,49.3c6.2,10.5,10.9,21.3,15.8,33.8
		c3.5,8.8,6.8,24.7,8,36c0.3,3,1.7,43.7,0.8,61c-1.9,32.9-27.9,60.1-31.8,66L457.9,448.4z"/>
	<path fill-rule="evenodd" clip-rule="evenodd" d="M73.5,233C69.7,230.2,69.1,236.7,73.5,233L73.5,233z"/>
	<path fill-rule="evenodd" clip-rule="evenodd" fill="#FFFFFF" d="M414.2,455.2c0-0.1,0-0.2,0.1-0.4c-1.4,0.5-2.7,1-4.1,1.5
		C411.5,456,412.8,455.6,414.2,455.2z"/>
	<path fill-rule="evenodd" clip-rule="evenodd" fill="#FFFFFF" d="M423.4,451.4c-2.5,1-5,1.9-7.6,2.9c0.1,0.1,0.3,0.2,0.4,0.3
		C418.7,453.6,421.1,452.6,423.4,451.4z"/>
	<path fill-rule="evenodd" clip-rule="evenodd" fill="#FFFFFF" d="M381.8,469.9c-0.6,0.2-1.3,0.4-1.9,0.6c0.1,0.2,0.2,0.5,0.3,0.7
		c1.1-0.5,2.2-1,3.3-1.4C382.9,469.8,382.4,469.8,381.8,469.9z"/>
</g>
</svg>
